<?xml version="1.0" encoding="UTF-8"?>
<svg width="20px" height="20px" viewBox="0 0 20 20" version="1.1" xmlns="http://www.w3.org/2000/svg" xmlns:xlink="http://www.w3.org/1999/xlink">
    <!-- Generator: sketchtool 41.2 (35397) - http://www.bohemiancoding.com/sketch -->
    <title>10DE80B5-CB5A-43C4-AA2C-15F05C8272FB</title>
    <desc>Created with sketchtool.</desc>
    <defs></defs>
    <g id="Home" stroke="none" stroke-width="1" fill="none" fill-rule="evenodd">
        <g id="01_Home-v2" transform="translate(-285.000000, -81.000000)" stroke-width="0.8">
            <g id="icon_cart" transform="translate(286.000000, 82.000000)">
                <g id="Group">
                    <ellipse id="Oval" stroke="#bf9161" fill="#bf9161" cx="6.08971429" cy="5.301" rx="0.575142857" ry="0.56615625"></ellipse>
                    <ellipse id="Oval" stroke="#bf9161" fill="#bf9161" cx="11.8045714" cy="5.301" rx="0.575142857" ry="0.56615625"></ellipse>
                    <path d="M16.3757143,17.7786563 L1.51857143,17.7786563 C0.730857143,17.7786563 0.09,17.1478125 0.09,16.3724063 L0.09,3.43490625 C0.09,3.279375 0.218,3.15365625 0.375714286,3.15365625 C0.533428571,3.15365625 0.661428571,3.279375 0.661428571,3.43490625 L0.661428571,16.3724063 C0.661428571,16.8375937 1.046,17.2161563 1.51857143,17.2161563 L16.3757143,17.2161563 C16.8482857,17.2161563 17.2328571,16.8375937 17.2328571,16.3724063 L17.2328571,3.43490625 C17.2328571,3.279375 17.3608571,3.15365625 17.5185714,3.15365625 C17.6762857,3.15365625 17.8042857,3.279375 17.8042857,3.43490625 L17.8042857,16.3724063 C17.8042857,17.1478125 17.1634286,17.7786563 16.3757143,17.7786563 Z" id="Shape" stroke="#FFFFFF" fill="#FFFFFF"></path>
                    <path d="M16.9471429,2.149875 C16.7894286,2.149875 16.6614286,2.02415625 16.6614286,1.868625 L16.6614286,0.78553125 L1.23285714,0.78553125 L1.23285714,1.868625 C1.23285714,2.02415625 1.10485714,2.149875 0.947142857,2.149875 C0.789428571,2.149875 0.661428571,2.02415625 0.661428571,1.868625 L0.661428571,0.50428125 C0.661428571,0.34875 0.789428571,0.22303125 0.947142857,0.22303125 L16.9471429,0.22303125 C17.1048571,0.22303125 17.2328571,0.34875 17.2328571,0.50428125 L17.2328571,1.868625 C17.2328571,2.023875 17.1048571,2.149875 16.9471429,2.149875 Z" id="Shape" stroke="#FFFFFF" fill="#FFFFFF"></path>
                    <path d="M0.376,3.71615625 C0.288857143,3.71615625 0.203142857,3.6770625 0.147142857,3.60365625 C0.0525714286,3.47934375 0.0782857143,3.303 0.204571429,3.20990625 L2.04485714,1.85371875 L0.756285714,0.7138125 C0.638857143,0.61003125 0.629428571,0.432 0.734857143,0.3166875 C0.840285714,0.201375 1.02114286,0.19209375 1.13828571,0.2953125 L2.68571429,1.66415625 C2.74942857,1.72040625 2.784,1.80196875 2.78028571,1.8860625 C2.77657143,1.97015625 2.73457143,2.0480625 2.66628571,2.0986875 L0.547428571,3.66046875 C0.495428571,3.697875 0.435428571,3.71615625 0.376,3.71615625 Z" id="Shape" stroke="#FFFFFF" fill="#FFFFFF"></path>
                    <path d="M17.5182857,3.71615625 C17.4588571,3.71615625 17.3988571,3.69815625 17.3471429,3.6601875 L15.2285714,2.09840625 C15.1602857,2.04778125 15.1182857,1.969875 15.1145714,1.88578125 C15.1108571,1.8016875 15.1454286,1.720125 15.2091429,1.663875 L16.7565714,0.29503125 C16.874,0.19153125 17.0548571,0.20109375 17.16,0.31640625 C17.2654286,0.43171875 17.2557143,0.60975 17.1385714,0.71353125 L15.85,1.8534375 L17.6902857,3.209625 C17.8165714,3.30271875 17.8422857,3.4790625 17.7477143,3.603375 C17.6911429,3.6770625 17.6054286,3.71615625 17.5182857,3.71615625 Z" id="Shape" stroke="#FFFFFF" fill="#FFFFFF"></path>
                    <path d="M8.85714286,8.39503125 C6.90542857,8.39503125 6.01,6.4051875 5.80885714,5.35303125 C5.77971429,5.20059375 5.88171429,5.0540625 6.03657143,5.0248125 C6.19228571,4.996125 6.34085714,5.09653125 6.37028571,5.24896875 C6.37542857,5.27484375 6.89314286,7.8328125 8.85714286,7.8328125 C10.8354286,7.8328125 11.5208571,5.25853125 11.5274286,5.23265625 C11.5662857,5.08246875 11.7208571,4.9899375 11.8742857,5.02875 C12.0271429,5.06671875 12.12,5.21915625 12.0814286,5.369625 C12.0502857,5.4928125 11.2822857,8.39503125 8.85714286,8.39503125 Z" id="Shape" stroke="#FFFFFF" fill="#FFFFFF"></path>
                    <path d="M17.5185714,3.71615625 L0.375714286,3.71615625 C0.218,3.71615625 0.09,3.5904375 0.09,3.43490625 C0.09,3.279375 0.218,3.15365625 0.375714286,3.15365625 L17.5185714,3.15365625 C17.6762857,3.15365625 17.8042857,3.279375 17.8042857,3.43490625 C17.8042857,3.5904375 17.6762857,3.71615625 17.5185714,3.71615625 Z" id="Shape" stroke="#FFFFFF" fill="#FFFFFF"></path>
                </g>
            </g>
        </g>
    </g>
</svg>