<?xml version="1.0" encoding="UTF-8" standalone="no"?>
<svg width="20px" height="17px" viewBox="0 0 20 17" version="1.1" xmlns="http://www.w3.org/2000/svg" xmlns:xlink="http://www.w3.org/1999/xlink">
    <!-- Generator: sketchtool 41.2 (35397) - http://www.bohemiancoding.com/sketch -->
    <title>065DE040-B0AE-4213-8167-93E4D2F0EBA3</title>
    <desc>Created with sketchtool.</desc>
    <defs></defs>
    <g id="Home" stroke="none" stroke-width="1" fill="none" fill-rule="evenodd">
        <g id="01_Home-Navigation-Drawer" transform="translate(-24.000000, -145.000000)">
            <g id="house" transform="translate(24.000000, 145.000000)">
                <g transform="translate(0.000000, 0.335742)" id="Layer_1">
                    <g>
                        <g id="Group">
                            <path d="M13.0576923,5.75240385 L12.5192308,5.75240385 C12.3076923,5.75240385 12.1346154,5.92548077 12.1346154,6.13701923 C12.1346154,6.34855769 12.3076923,6.52163462 12.5192308,6.52163462 L13.0576923,6.52163462 C13.2692308,6.52163462 13.4423077,6.34855769 13.4423077,6.13701923 C13.4423077,5.92548077 13.2692308,5.75240385 13.0576923,5.75240385 Z" id="Shape" fill="#bf9161"></path>
                            <polygon id="Rectangle-2" fill="#FBF8EB" points="1.89794922 5.1864751 10.2556152 0.805127445 10.2556152 15.2880376 2.40698242 15.2880376"></polygon>
                            <path d="M19.6153846,14.9639423 L17.5,14.9639423 L17.5,6.52163462 L18.6538462,6.52163462 C19,6.52163462 19.2884615,6.29086538 19.3846154,5.96394231 C19.4807692,5.61778846 19.3461538,5.27163462 19.0384615,5.09855769 L10.8269231,0.310096154 C10.2307692,-0.0552884615 9.46153846,-0.0552884615 8.86538462,0.310096154 L0.653846154,5.09855769 C0.346153846,5.27163462 0.192307692,5.61778846 0.288461538,5.94471154 C0.384615385,6.29086538 0.673076923,6.52163462 1.03846154,6.52163462 L2.11538462,6.52163462 L2.11538462,14.9639423 L0.384615385,14.9639423 C0.173076923,14.9639423 0,15.1370192 0,15.3485577 C0,15.5600962 0.173076923,15.7331731 0.384615385,15.7331731 L19.6153846,15.7331731 C19.8269231,15.7331731 20,15.5600962 20,15.3485577 C20,15.1370192 19.8269231,14.9639423 19.6153846,14.9639423 Z M14.4230769,14.9639423 L12.1153846,14.9639423 L12.1153846,9.19471154 C12.1153846,8.98317308 12.2884615,8.81009615 12.5,8.81009615 L14.0384615,8.81009615 C14.25,8.81009615 14.4230769,8.98317308 14.4230769,9.19471154 L14.4230769,14.9639423 Z M16.2000008,6.29086538 L16.2000008,14.9447115 L15.1923077,14.9447115 L15.1923077,9.19471154 C15.1923077,8.56009615 14.6730769,8.04086538 14.0384615,8.04086538 L12.5,8.04086538 C11.8653846,8.04086538 11.3461538,8.56009615 11.3461538,9.19471154 L11.3461538,14.9639423 L3.39999962,14.9639423 L3.39999962,6.52163462 L10.7884615,6.52163462 C11,6.52163462 11.1730769,6.34855769 11.1730769,6.13701923 C11.1730769,5.92548077 11,5.75240385 10.7884615,5.75240385 L2.05769231,5.75240385 L10.25,0.963942308 C10.6153846,0.752403846 10.0769231,0.752403846 10.4423077,0.963942308 L18.6538462,5.75240385 L17.1153846,5.75240385 C17.0144104,5.75240385 16.773104,5.79833895 16.5778809,5.92658741 C16.3826577,6.05483586 16.2000008,6.29086538 16.2000008,6.29086538 Z" id="Shape-Copy" fill="#826B5C"></path>
                        </g>
                    </g>
                </g>
            </g>
        </g>
    </g>
</svg>