<?xml version="1.0" encoding="UTF-8" standalone="no"?>
<svg width="18px" height="24px" viewBox="0 0 18 24" version="1.1" xmlns="http://www.w3.org/2000/svg" xmlns:xlink="http://www.w3.org/1999/xlink">
    <!-- Generator: sketchtool 41.2 (35397) - http://www.bohemiancoding.com/sketch -->
    <title>9030E80C-760D-46CE-9F34-FE62D2EBF856</title>
    <desc>Created with sketchtool.</desc>
    <defs></defs>
    <g id="Home" stroke="none" stroke-width="5" fill="none" fill-rule="evenodd">
        <g id="01_Home-Navigation-Drawer" transform="translate(-25.000000, -234.000000)">
            <g id="icon_my-orders" transform="translate(25.000000, 234.000000)">
                <path d="M1.09401709,3.09994266 C1.09401709,1.99694716 1.99772417,1.10279263 3.08635191,1.10279263 L5.80253697,1.10279263 C6.90287311,1.10279263 7.79487179,2.00140657 7.79487179,3.09994266 L7.79487179,20.3344008 C7.79487179,21.4373963 6.89116471,22.3315508 5.80253697,22.3315508 L3.08635191,22.3315508 C1.98601578,22.3315508 1.09401709,21.4329369 1.09401709,20.3344008 L1.09401709,3.09994266 Z" id="Path-Copy" fill="#FBF8EB"></path>
                <path d="M1.09401709,3.09994266 C1.09401709,1.99694716 1.98818298,1.10279263 3.10018809,1.10279263 L14.6775897,1.10279263 C15.7855673,1.10279263 16.6837607,2.00140657 16.6837607,3.09994266 L16.6837607,20.3344008 C16.6837607,21.4373963 15.7895948,22.3315508 14.6775897,22.3315508 L3.10018809,22.3315508 C1.99221044,22.3315508 1.09401709,21.4329369 1.09401709,20.3344008 L1.09401709,3.09994266 Z M16.6837607,3.85977421 L16.6837607,6.06535948 C16.6837607,5.7608317 16.9286648,5.51396316 17.2307692,5.51396316 C17.5328737,5.51396316 17.7777778,5.7608317 17.7777778,6.06535948 L17.7777778,3.85977421 L17.7752846,3.85977421 C17.7742963,3.83164702 17.7730158,3.80359151 17.771446,3.77561069 C17.7312462,3.51103064 17.5044854,3.3083779 17.2307692,3.3083779 C16.9286648,3.3083779 16.6837607,3.55524644 16.6837607,3.85977421 Z M17.7764567,3.89839781 C17.7773356,3.93278912 17.7777778,3.96728508 17.7777778,4.00188027 L17.7777778,19.4324632 C17.7777778,21.6426406 15.9917797,23.4343434 13.777019,23.4343434 L4.00075881,23.4343434 C1.79120073,23.4343434 0,21.6344014 0,19.4324632 L0,4.00188027 C0,1.79170283 1.78599805,0 4.00075881,0 L13.777019,0 C15.9103941,0 17.6537635,1.67796211 17.771446,3.77561069 Z M10.6666667,6.61675579 C10.6666667,6.31222802 10.9144814,6.06535948 11.2208988,6.06535948 L14.488503,6.06535948 C14.7945969,6.06535948 15.042735,6.32113414 15.042735,6.61675579 C15.042735,6.92128357 14.7949203,7.16815211 14.488503,7.16815211 L11.2208988,7.16815211 C10.9148048,7.16815211 10.6666667,6.91237745 10.6666667,6.61675579 Z M2.73504274,6.61675579 C2.73504274,6.31222802 2.97837236,6.06535948 3.2903312,6.06535948 L8.19684829,6.06535948 C8.50352564,6.06535948 8.75213675,6.32113414 8.75213675,6.61675579 C8.75213675,6.92128357 8.50880713,7.16815211 8.19684829,7.16815211 L3.2903312,7.16815211 C2.98365385,7.16815211 2.73504274,6.91237745 2.73504274,6.61675579 Z M2.73504274,9.37373737 C2.73504274,9.0692096 2.97843216,8.82234106 3.29262588,8.82234106 L12.0236134,8.82234106 C12.3315581,8.82234106 12.5811966,9.07811572 12.5811966,9.37373737 C12.5811966,9.67826515 12.3378072,9.92513369 12.0236134,9.92513369 L3.29262588,9.92513369 C2.98468121,9.92513369 2.73504274,9.66935903 2.73504274,9.37373737 Z" id="ICN" fill="#826B5C"></path>
                <path d="M12.2333919,16.538908 C12.3155024,16.6262074 12.3598173,16.6518077 12.3844504,16.8700564 C12.4090836,17.088305 12.8005664,17.3257074 12.7841443,17.5548685 C12.7677221,17.7840296 12.3483464,18.1102894 12.2826579,18.3067131 C12.2169695,18.5031369 12.1348602,18.6122596 12.0363276,18.6340845 L9.83618269,20.7689419 C9.54058479,20.7689419 9.31478422,20.6652753 9.15877422,20.4579391 C9.00276422,20.2506029 8.90833853,20.0159891 8.87549432,19.7540907 C8.84265011,19.4921924 8.85907197,19.2412102 8.92476039,19.0011367 C8.99044881,18.7610632 9.11361275,18.6082914 9.29425592,18.5428168 C10.0004065,18.2590936 10.1396498,17.3079487 10.3859814,17.1551747 C10.6323129,17.0024006 5.8780688,12.4904158 5.8780688,12.4904158 C5.66458143,12.3376418 5.54141748,12.1193964 5.50857327,11.8356732 C5.47572906,11.5519499 5.50036185,11.2845994 5.58247238,11.0336134 C5.66458291,10.7826275 5.79185231,10.5916628 5.96428442,10.4607136 C6.13671653,10.3297644 6.32146245,10.3406767 6.51852771,10.4934507 L12.2333919,16.538908 Z" id="&gt;" fill="#826B5C" transform="translate(9.139572, 15.569499) scale(-1, -1) rotate(-84.000000) translate(-9.139572, -15.569499) "></path>
            </g>
        </g>
    </g>
</svg>