<?xml version="1.0" encoding="UTF-8"?>
<svg width="98px" height="22px" viewBox="0 0 98 22" version="1.1" xmlns="http://www.w3.org/2000/svg" xmlns:xlink="http://www.w3.org/1999/xlink">
    <!-- Generator: sketchtool 41.2 (35397) - http://www.bohemiancoding.com/sketch -->
    <title>21B76832-F8D6-4A29-B212-762AB7B73550</title>
    <desc>Created with sketchtool.</desc>
    <defs></defs>
    <g id="Symbols" stroke="none" stroke-width="1" fill="none" fill-rule="evenodd">
        <g id="app-bar" transform="translate(-111.000000, -15.000000)" fill="#FFFFFF">
            <g id="logo">
                <g transform="translate(111.000000, 15.000000)">
                    <path d="M27.5746942,0.180753586 C27.8479018,0.0495417243 27.9543351,-0.0282553472 28.2924683,0.00957489272 C28.2924683,0.00957489272 28.6722331,0.0795796889 29.0319255,0.713267628 C29.4102035,1.3786274 29.148395,2.82258629 29.1906461,3.98891395 C29.2341363,5.22097323 29.1896549,6.44146977 29.4342408,7.3017621 C29.6836589,7.3433628 29.866293,7.05416884 30.0024631,6.9068697 C30.8539293,5.99328826 32.0051185,5.27149733 33.86863,5.57087152 C36.3832554,6.02885622 35.9285289,9.63265788 36.0734962,12.6025202 C37.0690624,12.7082187 37.6442233,13.2320607 37.4407735,14.2228108 C37.2902305,14.9654649 35.5667301,16.4545436 34.8884813,17.1231711 C34.5644731,17.4452937 34.2612808,17.8318911 33.8447166,17.9049122 C32.977143,18.0559818 32.2789457,17.3664911 32.2389248,16.6713448 C32.2007624,15.9883896 32.68758,15.5267601 32.883224,14.9463612 C33.0975773,14.3129247 33.0689556,13.0309697 33.0378558,12.0771701 C33.004154,11.0541197 33.0604062,9.81653044 32.5356741,9.35163324 C32.1148972,8.98099744 31.1981337,8.93700879 30.5823324,9.25360139 C29.7053421,9.70580472 29.45072,11.2396261 29.5054854,12.7817426 C29.5204778,13.2139625 29.6046084,14.0861946 29.768533,14.3918529 C30.1321903,15.0641252 31.0914527,14.8909355 31.3426055,15.7473317 C31.8931096,17.6144615 29.9556275,17.3731523 28.3962996,17.4329769 C26.6767641,17.4984571 25.1039307,17.8043668 24.8277493,16.7438632 C24.41515,15.1650477 26.0697599,15.3240352 26.431187,14.5187916 C26.6912609,13.9385184 26.534151,12.9524185 26.5008209,12.1079621 C26.3967418,9.41409713 26.320541,6.84767354 26.1462085,4.3058836 C25.7601246,4.26076381 25.3058937,4.39637454 24.9891959,4.27534291 C24.5884913,4.04773306 24.4244428,3.79963707 24.4463738,3.21911256 C24.47958,2.33607181 25.4117074,1.86866097 26.0433685,1.32621806 C26.301212,1.10388685 26.5710743,0.863206087 26.8118192,0.673300796 C27.1257911,0.424827759 27.2646871,0.392904566 27.5746942,0.180753586" id="Fill-10172"></path>
                    <path d="M97.6939278,12.6904788 C97.7683421,13.1513078 97.8586929,13.6160978 97.6432207,14.2436571 C97.0546234,16.0368428 95.0028962,17.3373882 92.3602009,16.7235684 C91.9193786,16.6220697 91.6078922,16.3982773 91.1914355,16.205801 C90.8057983,16.6365518 90.6958232,16.9256994 90.2082449,17.0441559 C88.4998771,17.4569587 88.1964248,15.8678845 87.8094705,14.8267797 C87.5967642,14.2565301 87.3221557,13.7073229 87.2277219,13.3039273 C86.9860401,12.2806467 87.8097339,11.6373675 88.7991148,11.740104 C89.5773697,11.8204365 89.9776265,12.4458916 90.569253,13.0031444 C91.1255822,13.5236349 91.8170424,14.043259 92.427108,14.191051 C93.2792504,14.3944199 94.2442655,14.1166599 94.2488752,13.3757191 C94.2538801,12.2337345 92.090729,11.9234206 91.1760259,11.6261036 C90.0598114,11.2629361 88.8076757,10.6119826 88.272683,9.72436377 C86.3796624,6.60018302 90.8172568,3.73878498 93.6685755,5.71516351 C94.1406123,5.32439336 94.4460402,4.91518014 95.0628227,4.89091946 C96.370407,4.84029387 96.5433379,5.74363267 96.9532092,6.78015761 C97.1850131,7.37132589 97.678123,8.09741322 97.5539236,8.72125914 C97.4517192,9.2360558 96.9362191,9.50737927 96.4294116,9.50638904 C95.7627122,9.50403724 95.1281493,8.91843901 94.6044834,8.518633 C94.0291884,8.07550435 93.363411,7.66393933 92.7810039,7.49213415 C91.9602076,7.25039385 91.1587723,7.46737836 91.1748405,8.19210412 C91.1943331,9.18567777 93.2427676,9.40736587 94.3048506,9.7777125 C95.4072358,10.1657595 96.6141961,10.8644917 97.1557742,11.6121166 C97.4220851,11.9809778 97.4955775,11.953994 97.6939278,12.6904788" id="Fill-10173"></path>
                    <path d="M45.7539459,11.5276824 C44.7333109,11.4184521 43.3703583,11.5568776 42.5398997,12.0119199 C42.1362099,12.2317647 41.6627673,12.6763622 41.7086675,13.1953319 C41.7589515,13.7775998 42.2794547,14.0489137 42.7603754,14.0435025 C43.371003,14.0392239 43.6635523,13.4896748 44.2944223,13.5945006 C44.9601043,13.7041084 45.3986061,15.0107191 44.9455349,15.8661885 C44.1460203,17.3852193 41.244766,17.4527961 39.7769907,16.4018951 C38.9449849,15.8084273 38.1891787,14.6008538 38.3088287,13.0332482 C38.3846414,12.0686743 38.9663878,11.1950837 39.6216262,10.6691928 C40.92643,9.6215636 43.0818058,9.28468632 45.7050802,9.1585933 C45.9063449,8.09926088 45.1890896,7.44387918 44.4171667,7.44010394 C42.7861621,7.43205009 41.7343252,9.5823011 39.9630413,8.95598874 C39.5924873,8.82612047 39.4390569,8.5735569 39.1658475,8.1869723 C38.0908027,6.1725041 41.4964435,5.22529632 43.4523598,4.96669236 C46.1349434,4.60905127 48.6339262,5.4791183 48.9566459,7.68612376 C49.1981378,9.33829474 48.8801886,11.4312879 49.0498646,12.8799735 C49.074233,13.0986857 49.1425676,13.4098914 49.2334655,13.5831749 C49.4740548,14.0513047 50.1599793,14.1008862 50.4099807,14.6856709 C50.6637212,15.2811521 50.4489185,16.114851 50.0109325,16.3954772 C49.5851952,16.6699372 47.2814172,16.7548801 46.6729816,16.5383071 C45.298296,16.0507978 46.1021944,13.1577053 45.7539459,11.5276824" id="Fill-10174"></path>
                    <path d="M58.0100187,11.5359522 C56.2544874,11.2738957 53.9030738,11.7711117 53.8988175,13.0713389 C53.8966248,13.6297642 54.4011901,14.0065724 54.9392899,14.0134852 C55.5742529,14.0235401 55.8249878,13.4573222 56.5249561,13.5818776 C57.1390244,13.6916019 57.5005522,14.75491 57.2731624,15.5674735 C57.0731162,16.2821271 56.2916333,16.7762009 55.6163,16.9536703 C52.821586,17.6829036 50.2353019,15.8064036 50.5435614,12.8241135 C50.631138,11.9898062 51.1856181,11.1695759 51.7168821,10.7347005 C53.0565855,9.62941308 55.3202935,9.23035833 57.9905429,9.16889762 C58.1499607,8.61977314 57.8585975,8.15825218 57.6772532,7.80205653 C55.8282123,6.46814532 54.3708801,9.57297983 52.2923857,8.89816882 C51.6081529,8.6752009 50.9373338,7.91467167 51.4471873,7.08325523 C52.3167627,5.61083746 53.8678625,5.04876727 55.9197873,4.91340287 C58.642531,4.73241426 61.0868094,5.53492279 61.2628656,7.94483644 C61.3238726,8.75400636 61.2735708,9.8504957 61.278472,10.8923114 C61.2836312,11.8460208 61.1313071,12.9900197 61.4635567,13.6305183 C61.6767587,14.0387482 62.4489552,14.320286 62.6283648,14.7447294 C62.9287566,15.4539786 62.596378,16.2879087 61.9937888,16.5335002 C61.2831153,16.8196885 58.9229311,16.7366097 58.4792438,16.3474841 C57.5362793,15.5175759 58.2964807,14.0920392 58.0100187,11.5359522" id="Fill-10175"></path>
                    <path d="M80.6283767,8.32052116 C79.3502349,9.5187079 79.6288286,13.3096777 81.2289402,13.8416149 C84.3133252,14.8683069 84.807535,9.10514756 82.7903548,8.05708195 C82.5199811,7.91758439 82.2298794,7.8738254 81.9037364,7.87660776 C81.3621037,7.88369014 80.9194901,8.04519368 80.6283767,8.32052116 Z M81.4785744,4.90529688 C84.8845498,4.66525483 86.9408064,7.09210783 87.1555373,10.0130832 C87.4152883,13.487243 85.9459374,16.0260229 83.623986,16.8423935 C82.3184022,17.3007246 80.6096605,17.1374505 79.5972133,16.6192986 C77.4413054,15.5120446 76.0296207,12.5313748 76.8098854,9.07074743 C77.2875287,6.96778679 78.8736032,5.08905932 81.4785744,4.90529688 L81.4785744,4.90529688 Z" id="Fill-10176"></path>
                    <path d="M66.7569178,21.8754091 C66.0620067,22.0643972 65.4702775,22.0248172 64.7573383,21.8477555 C64.3689041,21.7207586 64.0725281,21.6165661 63.7431645,21.4600808 C63.547541,21.3699118 63.3262178,21.2401626 63.1501567,21.118146 C61.7731203,20.1528912 61.3023452,17.3550284 63.0954332,16.7898989 C65.2247891,16.1175626 65.3287381,18.2412542 66.3624743,18.947404 C66.9673729,18.7958989 67.1566036,18.4218545 67.4225493,17.9083626 C67.6286572,17.5136107 68.0447089,16.8192563 68.0195207,16.3520284 C68.001237,16.0465282 67.5959255,15.3844146 67.4242115,15.0097148 C66.7867088,13.6223167 66.2026511,12.4367505 65.5505726,11.0715014 C64.9730357,9.86273768 64.3501089,8.31282549 63.405618,7.39606278 C63.0320154,7.03446902 62.6169866,6.67890402 62.5448744,6.31704814 C62.2066886,4.61458244 64.2685352,4.92532502 65.8442637,4.92493185 C66.89053,4.92322807 68.0856236,4.74800123 68.6343924,5.18587174 C69.0301145,5.50238095 69.0905916,6.09136331 68.9297456,6.61560217 C68.7270898,7.28518626 67.8323359,7.42974513 67.7723702,8.08438841 C67.7132996,8.7298575 68.3244633,9.69865092 68.5392657,10.1631266 C68.8670949,10.873077 69.0752486,11.5671693 69.5157212,12.0699144 C69.8554413,11.4341437 70.0574578,10.8649513 70.3328651,10.1244639 C70.5044512,9.66890036 71.1102449,8.60535077 71.0690744,8.09316941 C71.004378,7.34717751 69.7559674,7.22057382 69.7461223,6.14037965 C69.7332086,4.65219658 71.5902258,4.93489238 73.0979335,4.94498398 C73.9456356,4.95114379 75.0302594,4.89321539 75.456284,5.26594922 C75.7645509,5.53462164 75.8605727,6.18887174 75.7031788,6.65452691 C75.5149711,7.20772997 74.8882086,7.58675467 74.4485031,8.11413896 C74.0275929,8.62304384 73.778908,9.23220939 73.5371276,9.92538423 C73.1229938,11.1256291 72.5870109,12.5953328 72.1054957,13.9861385 C71.0611472,17.0127005 70.2447705,20.3143568 67.6730241,21.5013647 C67.3798445,21.6375357 67.3234589,21.6983474 66.7569178,21.8754091" id="Fill-10177"></path>
                    <path d="M17.4465685,7.44907431 C19.04324,7.54456077 20.2216583,6.43067892 19.5629354,5.08904982 C18.7967879,3.52918408 16.4521764,3.87739897 15.2725877,5.07915879 C14.8934806,5.46186547 14.6138648,5.93802967 14.4193041,6.37868762 C15.2355223,6.79106738 16.2620377,7.37856904 17.4465685,7.44907431 Z M16.5261771,0.942807226 C16.9152983,0.886631263 17.4175664,0.748664112 18.2363857,0.852393091 C19.0493526,0.991501515 19.0438903,1.0338554 19.465655,1.1426567 C20.7652835,1.48326311 21.8565657,2.1405092 22.5429901,3.15865098 C23.4706645,4.53426463 23.6950074,7.01272784 22.7342994,8.51540315 C21.5019087,10.4409833 18.39154,11.3744173 15.5520735,10.5590416 C15.1313492,10.4376863 14.7818944,10.2955345 14.3958944,10.1131845 C14.0414976,9.94478342 13.6864505,9.71779702 13.2800321,9.62269099 C12.6036218,12.8432349 13.4373973,16.5942168 15.3255196,17.9902465 C16.4539972,18.8261652 18.3972624,18.7712573 19.3396328,17.8437832 C19.8530856,17.3381996 20.158322,16.6235094 20.240256,15.8323541 C20.3325943,14.9552228 20.2014999,14.1090328 20.5141495,13.3464092 C20.8481279,12.5381347 21.8449909,11.930851 22.9912859,12.4019429 C23.8826752,12.7677841 24.2639932,13.7122504 24.3954777,14.7331819 C24.7861595,17.8203238 22.7951646,20.6042675 19.9905525,21.5448028 C18.7832623,21.9508422 17.1932235,22.1186092 15.7869508,21.9102636 C13.0978266,21.510945 11.1615843,19.4558939 10.1192024,16.9587899 C9.07278886,14.4521753 8.86171141,10.8030203 9.7447773,8.04684743 C8.6239729,7.43575947 7.58250138,6.77382148 6.04123277,6.78295166 C4.74264471,6.79043334 3.78661859,7.60466778 3.80053436,8.75887459 C3.80950807,9.4842166 4.2237297,10.2302283 4.98467499,10.241641 C5.76811961,10.2557167 6.3335939,9.59542726 7.18180535,9.78082062 C7.71242521,9.89684997 8.10895951,10.4085204 8.24824722,10.8532362 C8.98747351,13.2372275 6.34724956,14.6910817 3.92278501,14.2056605 C2.36408918,13.8942199 1.15419787,12.715666 0.558421017,11.3058141 C0.365421049,10.8495588 0.184646147,10.3908941 0.0577135533,9.65946532 C0.0428874102,9.43590274 0.0284514288,9.21195973 0.0132351241,8.99029927 C-0.0186280781,8.50183469 0.00816302253,8.05280741 0.0815134146,7.71930225 C0.167479034,7.3321573 0.187897494,7.29233957 0.397414305,6.82581278 C1.05236568,5.47632158 2.05235001,4.27392772 3.70962669,3.77214829 C6.45220305,2.94168241 9.1175274,3.97897221 10.924236,4.87943612 C12.0226711,3.11008349 13.0235658,2.09638 15.2810412,1.27238133 C15.6346577,1.14341755 15.7146409,1.14874349 16.5261771,0.942807226 L16.5261771,0.942807226 Z" id="Fill-10179"></path>
                </g>
            </g>
        </g>
    </g>
</svg>